Coordinates
version=1
nRows=18
nColumns=22
inDegrees=yes

Units are S.I. units (second, meters, Newtons, ...)
If the header above contains a line with 'inDegrees', this indicates whether rotational values are in degrees (yes) or radians (no).

endheader
time	pelvis_tilt	pelvis_list	pelvis_rotation	pelvis_tx	pelvis_ty	pelvis_tz	hip_flexion_r	hip_adduction_r	hip_rotation_r	knee_angle_r	ankle_angle_r	subtalar_angle_r	hip_flexion_l	hip_adduction_l	hip_rotation_l	knee_angle_l	ankle_angle_l	subtalar_angle_l	lumbar_extension	lumbar_bending	lumbar_rotation
      5.64000000	     -0.45722336	      0.72836153	    274.40481871	     -0.39438267	      0.92667446	      0.50720400	     23.65950252	     -6.63858689	      3.76367257	    -72.41147422	     -5.76866562	     11.25220287	     14.60382949	      7.66665285	     -7.84244351	    -26.22657319	     11.74938448	    -13.31945071	     -7.77888388	     -5.50152784	     -4.94310964
      5.65000000	     -0.41519831	      0.51494433	    275.67930699	     -0.39195682	      0.92749774	      0.51419455	     24.52204760	     -6.66129432	      4.20213134	    -71.53047883	     -4.23190184	     10.82781126	     13.66344597	      7.99853547	     -6.72549699	    -25.90594126	     11.86626548	    -13.24270966	     -8.03601105	     -5.47806119	     -5.69518246
      5.66000000	     -0.39059363	      0.32206926	    276.98724000	     -0.38950269	      0.92825864	      0.52108058	     25.28180142	     -6.69180370	      4.59514148	    -70.36526462	     -2.80069016	     10.33246595	     12.76626245	      8.28742128	     -5.54079383	    -25.62701446	     11.96555347	    -13.17939053	     -8.26527215	     -5.43908995	     -6.44853023
      5.67000000	     -0.38698189	      0.13173187	    278.29910860	     -0.38710731	      0.92897829	      0.52788587	     25.91715413	     -6.70900868	      4.95649438	    -68.92008609	     -1.41596861	      9.65336324	     11.89889736	      8.50962140	     -4.35550570	    -25.40001701	     12.10452300	    -13.11630732	     -8.48410544	     -5.38965324	     -7.16878108
      5.68000000	     -0.40772603	     -0.03844256	    279.62674335	     -0.38471689	      0.92963373	      0.53459615	     26.44820710	     -6.71902486	      5.27366795	    -67.20511369	     -0.15720171	      8.97543073	     11.08174667	      8.67470087	     -3.15196061	    -25.21778655	     12.24769497	    -13.05509810	     -8.67172225	     -5.31778968	     -7.87334686
      5.69000000	     -0.45073243	     -0.19875911	    280.95047633	     -0.38237865	      0.93023987	      0.54122771	     26.86473743	     -6.71345104	      5.55623864	    -65.22871385	      1.00331298	      8.27442055	     10.30307141	      8.77618816	     -1.96404613	    -25.07574605	     12.41330745	    -12.98777941	     -8.83926323	     -5.23121800	     -8.53824570
      5.70000000	     -0.51817994	     -0.34668943	    282.28155292	     -0.38007547	      0.93079365	      0.54774604	     27.17419622	     -6.68910057	      5.80399818	    -63.00574581	      1.97373359	      7.72875508	      9.57279433	      8.82424068	     -0.74613216	    -24.97816140	     12.57622900	    -12.91653500	     -8.98957659	     -5.12582524	     -9.16958237
      5.71000000	     -0.60576467	     -0.47952660	    283.59620219	     -0.37782680	      0.93129503	      0.55421244	     27.37974562	     -6.64609792	      6.02387790	    -60.54483523	      2.78242972	      7.29441304	      8.87828124	      8.81600077	      0.43799405	    -24.89587922	     12.75225940	    -12.83717488	     -9.10925521	     -5.00881064	     -9.74244452
      5.72000000	     -0.69555611	     -0.61502626	    284.87447901	     -0.37569648	      0.93174893	      0.56061601	     27.46988399	     -6.57466884	      6.26181811	    -57.87142812	      3.50994097	      6.91907481	      8.21268026	      8.76158758	      1.55938048	    -24.85296252	     12.95263349	    -12.73745834	     -9.23060031	     -4.90488361	    -10.23856263
      5.73000000	     -0.79630498	     -0.72746036	    286.13450867	     -0.37361491	      0.93212461	      0.56694914	     27.47950586	     -6.48951880	      6.49456372	    -55.00145856	      4.01552401	      6.76452709	      7.59449665	      8.67340516	      2.66416071	    -24.82796166	     13.15306506	    -12.63753437	     -9.32079838	     -4.80043566	    -10.67842344
      5.74000000	     -0.89555560	     -0.82633877	    287.35500445	     -0.37161979	      0.93243220	      0.57326241	     27.40189511	     -6.39224790	      6.74215834	    -51.95481635	      4.38594603	      6.73854349	      7.00060582	      8.55405582	      3.70453015	    -24.80317561	     13.36372522	    -12.52617419	     -9.39013610	     -4.71358720	    -11.04580675
      5.75000000	     -0.98539910	     -0.91623963	    288.53757492	     -0.36969746	      0.93266701	      0.57954144	     27.23873070	     -6.28957145	      7.01464648	    -48.75443726	      4.63547848	      6.84727128	      6.42991094	      8.41732561	      4.68841748	    -24.78997947	     13.58231045	    -12.40058652	     -9.45192348	     -4.64942209	    -11.34439430
      5.76000000	     -1.08157192	     -0.94946285	    289.70354151	     -0.36781493	      0.93271576	      0.58575247	     27.05896923	     -6.19883294	      7.28943467	    -45.43676753	      4.78575280	      7.06291494	      5.95694112	      8.27057677	      5.62826838	    -24.82524148	     13.83325328	    -12.28849235	     -9.45109592	     -4.60117947	    -11.61478070
      5.77000000	     -1.12678773	     -1.03433936	    290.78976469	     -0.36600623	      0.93283935	      0.59203571	     26.73093804	     -6.11591650	      7.62646722	    -41.99772629	      4.79470909	      7.46367739	      5.36846064	      8.12402647	      6.49175996	    -24.76512975	     14.03303398	    -12.12881549	     -9.51867174	     -4.59947167	    -11.74943255
      5.78000000	     -1.17354739	     -1.05883109	    291.86270363	     -0.36419915	      0.93276384	      0.59827424	     26.40723735	     -6.06942045	      7.93968122	    -38.49160738	      4.73702265	      7.94101181	      4.87004369	      7.98063201	      7.31893718	    -24.74269863	     14.26697245	    -11.98640714	     -9.52246203	     -4.61738612	    -11.87547181
      5.79000000	     -1.19849565	     -1.06571993	    292.89640671	     -0.36240677	      0.93258540	      0.60452645	     26.04283542	     -6.06058661	      8.23918287	    -34.93475299	      4.61982487	      8.50757327	      4.38242084	      7.84784788	      8.10313523	    -24.71505929	     14.50533448	    -11.84779046	     -9.51571858	     -4.66841981	    -11.94767232
      5.80000000	     -1.19996619	     -1.05483016	    293.89242294	     -0.36059212	      0.93230396	      0.61080962	     25.64524233	     -6.09858533	      8.49996995	    -31.35281616	      4.45770535	      9.13337036	      3.89517752	      7.72986354	      8.84644746	    -24.66914814	     14.75117504	    -11.71902537	     -9.49694284	     -4.74766146	    -11.97807343
      5.81000000	     -1.17190364	     -1.03451617	    294.84196295	     -0.35875936	      0.93193774	      0.61714990	     25.21485196	     -6.18394749	      8.70204632	    -27.77446345	      4.26527572	      9.81509030	      3.39078988	      7.63052537	      9.55498152	    -24.59913476	     15.00077940	    -11.60118983	     -9.47786325	     -4.86006276	    -11.95753283
